<svg width="760" height="560" viewBox="0 0 760 560" fill="none" xmlns="http://www.w3.org/2000/svg">
  <rect width="760" height="560" rx="36" fill="#F4F6F8"/>
  <rect x="78" y="88" width="604" height="384" rx="28" fill="white" stroke="#D6DEE4" stroke-width="4"/>
  <rect x="78" y="88" width="604" height="92" rx="28" fill="#173042"/>
  <circle cx="128" cy="134" r="8" fill="#B7C7D3"/>
  <circle cx="156" cy="134" r="8" fill="#8AA2B4"/>
  <circle cx="184" cy="134" r="8" fill="#5E7B90"/>
  <rect x="118" y="214" width="204" height="178" rx="22" fill="#EEF3F6"/>
  <rect x="344" y="214" width="298" height="76" rx="18" fill="#F5F7F9"/>
  <rect x="344" y="306" width="298" height="86" rx="18" fill="#F5F7F9"/>
  <rect x="118" y="410" width="524" height="18" rx="9" fill="#E6ECEF"/>
  <rect x="144" y="240" width="154" height="16" rx="8" fill="#C6D3DB"/>
  <rect x="144" y="268" width="122" height="14" rx="7" fill="#D6E0E6"/>
  <rect x="144" y="296" width="138" height="14" rx="7" fill="#D6E0E6"/>
  <rect x="144" y="336" width="82" height="28" rx="14" fill="#173042"/>
  <rect x="370" y="236" width="126" height="14" rx="7" fill="#C6D3DB"/>
  <rect x="370" y="260" width="208" height="12" rx="6" fill="#D6E0E6"/>
  <rect x="370" y="330" width="118" height="14" rx="7" fill="#C6D3DB"/>
  <rect x="370" y="354" width="222" height="12" rx="6" fill="#D6E0E6"/>
  <ellipse cx="565" cy="499" rx="74" ry="15" fill="#DCE4E9"/>
  <path d="M521 356C521 324.52 546.52 299 578 299C609.48 299 635 324.52 635 356V407H521V356Z" fill="#23455C"/>
  <rect x="534" y="403" width="89" height="69" rx="22" fill="#A06A43"/>
  <rect x="548" y="413" width="61" height="17" rx="8.5" fill="#F1ECE6"/>
  <circle cx="578" cy="274" r="45" fill="#D3B198"/>
  <path d="M533 272C533 247.147 553.147 227 578 227C602.853 227 623 247.147 623 272V282H533V272Z" fill="#1B2430"/>
  <circle cx="562" cy="274" r="4" fill="#1B2430"/>
  <circle cx="594" cy="274" r="4" fill="#1B2430"/>
  <path d="M564 295C572.667 303 583.333 303 592 295" stroke="#8D573C" stroke-width="4" stroke-linecap="round"/>
  <path d="M539 420L516 505" stroke="#2A3641" stroke-width="14" stroke-linecap="round"/>
  <path d="M616 420L639 505" stroke="#2A3641" stroke-width="14" stroke-linecap="round"/>
  <path d="M503 505H533" stroke="#1F2A33" stroke-width="12" stroke-linecap="round"/>
  <path d="M623 505H653" stroke="#1F2A33" stroke-width="12" stroke-linecap="round"/>
  <path d="M521 367L478 337" stroke="#D3B198" stroke-width="14" stroke-linecap="round"/>
  <path d="M635 367L667 331" stroke="#D3B198" stroke-width="14" stroke-linecap="round"/>
  <rect x="450" y="305" width="88" height="58" rx="14" fill="white" stroke="#D6DEE4" stroke-width="4"/>
  <path d="M468 326H520" stroke="#617C8E" stroke-width="5" stroke-linecap="round"/>
  <path d="M468 342H503" stroke="#617C8E" stroke-width="5" stroke-linecap="round"/>
</svg>
